<svg width="150" height="38" viewBox="0 0 150 38" fill="none" xmlns="http://www.w3.org/2000/svg">
<g id="Frame 1">
<g clip-path="url(#clip0_1_6)">
<rect width="150" height="38" fill="white"/>
<path id="Rectangle 2" d="M49.5 0.5H149.5V22C149.5 24.8085 149.5 26.8848 149.365 28.5273C149.232 30.1639 148.968 31.3256 148.465 32.3129C147.554 34.1004 146.1 35.5538 144.313 36.4646C143.326 36.9676 142.164 37.2317 140.527 37.3654C138.885 37.4996 136.809 37.5 134 37.5H49.5V0.5Z" fill="#800080" stroke="white"/>
<path id="Rectangle 1" d="M0 0H62V22C62 27.6005 62 30.4008 60.9101 32.5399C59.9513 34.4215 58.4215 35.9513 56.5399 36.9101C54.4008 38 51.6005 38 46 38H16C10.3995 38 7.59921 38 5.46009 36.9101C3.57847 35.9513 2.04867 34.4215 1.08993 32.5399C0 30.4008 0 27.6005 0 22V0Z" fill="#F9F9F9"/>
<path id="Sports" d="M66.2441 19.6572C66.6862 19.9489 67.151 20.2223 67.6387 20.4775C68.1263 20.7282 68.6299 20.9469 69.1494 21.1338C69.6735 21.3206 70.209 21.4688 70.7559 21.5781C71.3073 21.6829 71.8678 21.7354 72.4375 21.7354C72.6562 21.7354 72.8659 21.7217 73.0664 21.6943C73.2715 21.667 73.4492 21.6237 73.5996 21.5645C73.7546 21.5007 73.8776 21.4186 73.9688 21.3184C74.0645 21.2135 74.1123 21.0882 74.1123 20.9424C74.1123 20.8102 74.0736 20.6781 73.9961 20.5459C73.9186 20.4092 73.7682 20.2793 73.5449 20.1562C73.3262 20.0332 73.0186 19.9193 72.6221 19.8145C72.2256 19.7051 71.7106 19.6094 71.0771 19.5273C70.2295 19.418 69.4935 19.2767 68.8691 19.1035C68.2448 18.9303 67.7275 18.7093 67.3174 18.4404C66.9072 18.1715 66.6019 17.848 66.4014 17.4697C66.2008 17.0915 66.1006 16.6426 66.1006 16.123C66.1006 15.6263 66.2122 15.182 66.4355 14.79C66.6634 14.3936 66.9893 14.0586 67.4131 13.7852C67.8369 13.5117 68.3519 13.3021 68.958 13.1562C69.5641 13.0104 70.2477 12.9375 71.0088 12.9375C71.3232 12.9375 71.64 12.9557 71.959 12.9922C72.278 13.0241 72.5924 13.0697 72.9023 13.1289C73.2122 13.1882 73.5153 13.2588 73.8115 13.3408C74.1077 13.4183 74.3857 13.5003 74.6455 13.5869L75.9854 12.8486H76.9219V16.1299C76.4342 15.8428 75.9421 15.5898 75.4453 15.3711C74.9531 15.1523 74.4632 14.9701 73.9756 14.8242C73.4925 14.6738 73.0186 14.5622 72.5537 14.4893C72.0934 14.4118 71.6536 14.373 71.2344 14.373C70.9609 14.373 70.7126 14.3936 70.4893 14.4346C70.2705 14.4756 70.0837 14.5303 69.9287 14.5986C69.7783 14.667 69.6621 14.749 69.5801 14.8447C69.498 14.9359 69.457 15.0339 69.457 15.1387C69.457 15.2891 69.498 15.4258 69.5801 15.5488C69.6621 15.6673 69.8216 15.779 70.0586 15.8838C70.2956 15.9886 70.6283 16.0911 71.0566 16.1914C71.485 16.2871 72.0456 16.3919 72.7383 16.5059C73.1986 16.5833 73.6383 16.6654 74.0576 16.752C74.4769 16.8385 74.8665 16.9434 75.2266 17.0664C75.5866 17.1849 75.9102 17.3285 76.1973 17.4971C76.4889 17.6657 76.7373 17.8685 76.9424 18.1055C77.1475 18.3424 77.3047 18.6204 77.4141 18.9395C77.528 19.2585 77.585 19.6299 77.585 20.0537C77.585 20.6188 77.4482 21.1042 77.1748 21.5098C76.9014 21.9154 76.5322 22.248 76.0674 22.5078C75.6025 22.7676 75.0602 22.959 74.4404 23.082C73.8252 23.2051 73.1758 23.2666 72.4922 23.2666C71.8542 23.2666 71.2093 23.1982 70.5576 23.0615C69.9059 22.9294 69.2816 22.7129 68.6846 22.4121L67.5908 23.0957H66.2441V19.6572ZM80.6201 21.2637V14.9336L78.501 13.1973C78.9385 13.1927 79.4033 13.1882 79.8955 13.1836C80.3877 13.179 80.8822 13.1768 81.3789 13.1768C81.8802 13.1722 82.3724 13.1676 82.8555 13.1631C83.3385 13.1585 83.7874 13.1562 84.2021 13.1562C84.6169 13.1517 84.986 13.1494 85.3096 13.1494C85.6331 13.1494 85.8883 13.1494 86.0752 13.1494C86.5355 13.1494 87.0003 13.1654 87.4697 13.1973C87.9391 13.2246 88.3903 13.2793 88.8232 13.3613C89.2562 13.4434 89.6618 13.5573 90.04 13.7031C90.4183 13.8444 90.7464 14.0312 91.0244 14.2637C91.3024 14.4961 91.5212 14.7764 91.6807 15.1045C91.8447 15.4326 91.9268 15.82 91.9268 16.2666C91.9268 16.7497 91.8561 17.1712 91.7148 17.5312C91.5781 17.8867 91.3776 18.1921 91.1133 18.4473C90.849 18.6979 90.5277 18.903 90.1494 19.0625C89.7757 19.222 89.3496 19.3473 88.8711 19.4385C88.3926 19.5296 87.8685 19.5934 87.2988 19.6299C86.7337 19.6618 86.1299 19.6777 85.4873 19.6777C85.3141 19.6777 85.1182 19.6755 84.8994 19.6709C84.6807 19.6663 84.4551 19.6595 84.2227 19.6504V21.2637L87.0322 23H78.4941L80.6201 21.2637ZM85.084 18.1533C85.6491 18.1533 86.1208 18.1283 86.499 18.0781C86.8773 18.0234 87.1803 17.9277 87.4082 17.791C87.6361 17.6543 87.7979 17.4674 87.8936 17.2305C87.9893 16.9935 88.0371 16.6904 88.0371 16.3213C88.0371 15.9521 87.9733 15.6559 87.8457 15.4326C87.7181 15.2093 87.5335 15.0384 87.292 14.9199C87.0505 14.7969 86.7542 14.7171 86.4033 14.6807C86.057 14.6442 85.6628 14.626 85.2207 14.626H84.2227V18.1533H85.084ZM93.0273 18.0986C93.0273 17.4697 93.1185 16.9046 93.3008 16.4033C93.4876 15.902 93.7383 15.46 94.0527 15.0771C94.3672 14.6943 94.7363 14.3685 95.1602 14.0996C95.584 13.8262 96.0329 13.6051 96.5068 13.4365C96.9854 13.2633 97.4775 13.138 97.9834 13.0605C98.4893 12.9785 98.9837 12.9375 99.4668 12.9375C99.9954 12.9375 100.522 12.9785 101.046 13.0605C101.575 13.138 102.076 13.2633 102.55 13.4365C103.028 13.6051 103.473 13.8262 103.883 14.0996C104.293 14.3685 104.648 14.6943 104.949 15.0771C105.255 15.46 105.492 15.902 105.66 16.4033C105.833 16.9046 105.92 17.4697 105.92 18.0986C105.92 18.7184 105.831 19.2767 105.653 19.7734C105.476 20.2702 105.232 20.71 104.922 21.0928C104.612 21.4756 104.247 21.8037 103.828 22.0771C103.413 22.3506 102.967 22.5762 102.488 22.7539C102.014 22.9316 101.518 23.0615 100.998 23.1436C100.483 23.2256 99.9727 23.2666 99.4668 23.2666C98.9609 23.2666 98.4505 23.2279 97.9355 23.1504C97.4206 23.0729 96.9238 22.9499 96.4453 22.7812C95.9714 22.6126 95.5247 22.3939 95.1055 22.125C94.6908 21.8561 94.3285 21.5303 94.0186 21.1475C93.7132 20.7646 93.4717 20.3226 93.2939 19.8213C93.1162 19.3154 93.0273 18.7412 93.0273 18.0986ZM97.0469 18.0986C97.0469 18.6364 97.1061 19.1354 97.2246 19.5957C97.3431 20.0514 97.5094 20.4479 97.7236 20.7852C97.9378 21.1224 98.193 21.3867 98.4893 21.5781C98.7855 21.7695 99.1113 21.8652 99.4668 21.8652C99.8223 21.8652 100.148 21.7673 100.444 21.5713C100.741 21.3753 100.996 21.1087 101.21 20.7715C101.429 20.4342 101.597 20.0378 101.716 19.582C101.839 19.1217 101.9 18.6273 101.9 18.0986C101.9 17.5654 101.843 17.0664 101.729 16.6016C101.616 16.1322 101.451 15.7266 101.237 15.3848C101.028 15.0384 100.772 14.7673 100.472 14.5713C100.171 14.3708 99.8359 14.2705 99.4668 14.2705C99.1113 14.2705 98.7855 14.3708 98.4893 14.5713C98.193 14.7673 97.9378 15.0384 97.7236 15.3848C97.5094 15.7266 97.3431 16.1322 97.2246 16.6016C97.1061 17.0664 97.0469 17.5654 97.0469 18.0986ZM108.866 21.2637V14.9336L106.747 13.1973C107.175 13.1927 107.62 13.1882 108.08 13.1836C108.54 13.179 108.998 13.1768 109.454 13.1768C109.91 13.1722 110.354 13.1676 110.787 13.1631C111.22 13.1585 111.626 13.1562 112.004 13.1562C112.387 13.1517 112.733 13.1494 113.043 13.1494C113.353 13.1494 113.61 13.1494 113.815 13.1494C114.248 13.1494 114.702 13.1585 115.176 13.1768C115.65 13.195 116.115 13.236 116.57 13.2998C117.031 13.359 117.466 13.4502 117.876 13.5732C118.291 13.6917 118.653 13.8535 118.963 14.0586C119.277 14.2591 119.526 14.5098 119.708 14.8105C119.895 15.1068 119.988 15.4645 119.988 15.8838C119.988 16.2028 119.931 16.4899 119.817 16.7451C119.703 17.0003 119.539 17.2282 119.325 17.4287C119.116 17.6292 118.86 17.8047 118.56 17.9551C118.259 18.1055 117.924 18.2354 117.555 18.3447C117.842 18.3857 118.111 18.4837 118.361 18.6387C118.617 18.7891 118.838 18.9805 119.024 19.2129C119.211 19.4453 119.357 19.7142 119.462 20.0195C119.571 20.3249 119.626 20.653 119.626 21.0039V21.4004L121.547 23H114.82L115.859 21.5439V20.7031C115.859 20.4661 115.825 20.2497 115.757 20.0537C115.688 19.8532 115.595 19.6823 115.477 19.541C115.358 19.3952 115.219 19.2835 115.06 19.2061C114.905 19.124 114.741 19.083 114.567 19.083H112.469V21.2637L113.706 23H106.74L108.866 21.2637ZM113.467 17.7432C113.945 17.7432 114.362 17.7227 114.718 17.6816C115.073 17.6406 115.367 17.5632 115.6 17.4492C115.837 17.3353 116.012 17.1781 116.126 16.9775C116.24 16.777 116.297 16.5195 116.297 16.2051C116.297 15.9635 116.256 15.7562 116.174 15.583C116.092 15.4098 115.98 15.2663 115.839 15.1523C115.698 15.0339 115.531 14.9404 115.34 14.8721C115.153 14.7992 114.955 14.7467 114.745 14.7148C114.535 14.6784 114.321 14.6556 114.103 14.6465C113.884 14.6328 113.672 14.626 113.467 14.626H112.469V17.7432H113.467ZM125.949 21.2705V14.5645H124.575L121.991 17.4355L121.848 13.1973H125.915L125.949 13.2246V13.1973H133.674L133.53 17.4355L130.878 14.5645H129.552V21.2705L131.972 23H123.611L125.949 21.2705ZM135.287 19.6572C135.729 19.9489 136.194 20.2223 136.682 20.4775C137.169 20.7282 137.673 20.9469 138.192 21.1338C138.716 21.3206 139.252 21.4688 139.799 21.5781C140.35 21.6829 140.911 21.7354 141.48 21.7354C141.699 21.7354 141.909 21.7217 142.109 21.6943C142.314 21.667 142.492 21.6237 142.643 21.5645C142.798 21.5007 142.921 21.4186 143.012 21.3184C143.107 21.2135 143.155 21.0882 143.155 20.9424C143.155 20.8102 143.117 20.6781 143.039 20.5459C142.962 20.4092 142.811 20.2793 142.588 20.1562C142.369 20.0332 142.062 19.9193 141.665 19.8145C141.269 19.7051 140.754 19.6094 140.12 19.5273C139.272 19.418 138.536 19.2767 137.912 19.1035C137.288 18.9303 136.771 18.7093 136.36 18.4404C135.95 18.1715 135.645 17.848 135.444 17.4697C135.244 17.0915 135.144 16.6426 135.144 16.123C135.144 15.6263 135.255 15.182 135.479 14.79C135.706 14.3936 136.032 14.0586 136.456 13.7852C136.88 13.5117 137.395 13.3021 138.001 13.1562C138.607 13.0104 139.291 12.9375 140.052 12.9375C140.366 12.9375 140.683 12.9557 141.002 12.9922C141.321 13.0241 141.635 13.0697 141.945 13.1289C142.255 13.1882 142.558 13.2588 142.854 13.3408C143.151 13.4183 143.429 13.5003 143.688 13.5869L145.028 12.8486H145.965V16.1299C145.477 15.8428 144.985 15.5898 144.488 15.3711C143.996 15.1523 143.506 14.9701 143.019 14.8242C142.535 14.6738 142.062 14.5622 141.597 14.4893C141.136 14.4118 140.697 14.373 140.277 14.373C140.004 14.373 139.756 14.3936 139.532 14.4346C139.313 14.4756 139.127 14.5303 138.972 14.5986C138.821 14.667 138.705 14.749 138.623 14.8447C138.541 14.9359 138.5 15.0339 138.5 15.1387C138.5 15.2891 138.541 15.4258 138.623 15.5488C138.705 15.6673 138.865 15.779 139.102 15.8838C139.339 15.9886 139.671 16.0911 140.1 16.1914C140.528 16.2871 141.089 16.3919 141.781 16.5059C142.242 16.5833 142.681 16.6654 143.101 16.752C143.52 16.8385 143.91 16.9434 144.27 17.0664C144.63 17.1849 144.953 17.3285 145.24 17.4971C145.532 17.6657 145.78 17.8685 145.985 18.1055C146.19 18.3424 146.348 18.6204 146.457 18.9395C146.571 19.2585 146.628 19.6299 146.628 20.0537C146.628 20.6188 146.491 21.1042 146.218 21.5098C145.944 21.9154 145.575 22.248 145.11 22.5078C144.646 22.7676 144.103 22.959 143.483 23.082C142.868 23.2051 142.219 23.2666 141.535 23.2666C140.897 23.2666 140.252 23.1982 139.601 23.0615C138.949 22.9294 138.325 22.7129 137.728 22.4121L136.634 23.0957H135.287V19.6572Z" fill="white"/>
<path id="raJiB" d="M4.12598 21.332V17.1689L2.33496 15.6377L7.38672 15.4326V16.8818C7.56445 16.5993 7.76725 16.3509 7.99512 16.1367C8.22754 15.9225 8.47363 15.7448 8.7334 15.6035C8.99772 15.4577 9.27116 15.3483 9.55371 15.2754C9.84082 15.2025 10.1279 15.166 10.415 15.166C10.7933 15.166 11.1191 15.2298 11.3926 15.3574C11.6706 15.485 11.8984 15.665 12.0762 15.8975C12.2539 16.1253 12.3861 16.3965 12.4727 16.7109C12.5592 17.0254 12.6025 17.3672 12.6025 17.7363C12.6025 17.8548 12.598 17.9756 12.5889 18.0986C12.5798 18.2217 12.5615 18.3424 12.5342 18.4609L10.0391 18.6865C10.0573 18.6136 10.0664 18.5452 10.0664 18.4814C10.071 18.4131 10.0732 18.347 10.0732 18.2832C10.0732 18.0964 10.0505 17.9255 10.0049 17.7705C9.96387 17.6156 9.90007 17.4834 9.81348 17.374C9.73145 17.2601 9.62435 17.1735 9.49219 17.1143C9.36458 17.0505 9.21419 17.0186 9.04102 17.0186C8.85872 17.0186 8.69238 17.055 8.54199 17.1279C8.3916 17.2008 8.25488 17.2988 8.13184 17.4219C8.00879 17.5449 7.89941 17.6885 7.80371 17.8525C7.71257 18.012 7.63509 18.1807 7.57129 18.3584C7.51204 18.5316 7.46647 18.707 7.43457 18.8848C7.40267 19.0625 7.38672 19.2288 7.38672 19.3838V21.2637L9.76562 23H2.3418L4.12598 21.332ZM13.3066 21.2363C13.3066 20.8717 13.3818 20.5573 13.5322 20.293C13.6826 20.0241 13.8854 19.7962 14.1406 19.6094C14.3958 19.418 14.6943 19.263 15.0361 19.1445C15.3779 19.026 15.7402 18.9349 16.123 18.8711C16.5059 18.8027 16.8978 18.7572 17.2988 18.7344C17.7044 18.707 18.0986 18.6934 18.4814 18.6934C18.6956 18.6934 18.9212 18.6979 19.1582 18.707C19.3997 18.7116 19.6413 18.7184 19.8828 18.7275C19.8737 18.3994 19.8441 18.1077 19.7939 17.8525C19.7484 17.5928 19.6686 17.3763 19.5547 17.2031C19.4453 17.0254 19.2904 16.891 19.0898 16.7998C18.8939 16.7041 18.641 16.6562 18.3311 16.6562C18.1305 16.6562 17.9323 16.6813 17.7363 16.7314C17.5404 16.7816 17.3626 16.8613 17.2031 16.9707C17.0436 17.0801 16.9069 17.2214 16.793 17.3945C16.6836 17.5632 16.613 17.7705 16.5811 18.0166L13.8398 17.6406C13.8398 17.3307 13.9014 17.055 14.0244 16.8135C14.152 16.5674 14.3252 16.3532 14.5439 16.1709C14.7627 15.984 15.0202 15.8268 15.3164 15.6992C15.6172 15.5716 15.9385 15.4691 16.2803 15.3916C16.6266 15.3141 16.9867 15.2572 17.3604 15.2207C17.7386 15.1842 18.1146 15.166 18.4883 15.166C18.9395 15.166 19.3701 15.1865 19.7803 15.2275C20.195 15.264 20.5801 15.3324 20.9355 15.4326C21.291 15.5329 21.6123 15.6673 21.8994 15.8359C22.1911 16.0046 22.4395 16.2188 22.6445 16.4785C22.8496 16.7383 23.0068 17.0482 23.1162 17.4082C23.2301 17.7682 23.2871 18.1875 23.2871 18.666V21.0723C23.2871 21.4368 23.376 21.6921 23.5537 21.8379C23.736 21.9837 23.9821 22.0566 24.292 22.0566V22.8428C24.251 22.8838 24.1803 22.9294 24.0801 22.9795C23.9844 23.0251 23.8568 23.0684 23.6973 23.1094C23.5423 23.1549 23.3577 23.1914 23.1436 23.2188C22.9294 23.2507 22.6833 23.2666 22.4053 23.2666C22.068 23.2666 21.765 23.2484 21.4961 23.2119C21.2272 23.18 20.9925 23.1208 20.792 23.0342C20.596 22.9521 20.432 22.8382 20.2998 22.6924C20.1676 22.5465 20.0674 22.362 19.999 22.1387C19.7712 22.3392 19.5137 22.5101 19.2266 22.6514C18.9395 22.7926 18.6341 22.9089 18.3105 23C17.9915 23.0911 17.6611 23.1572 17.3193 23.1982C16.9821 23.2438 16.6494 23.2666 16.3213 23.2666C16.1025 23.2666 15.877 23.2552 15.6445 23.2324C15.4121 23.2096 15.1842 23.1686 14.9609 23.1094C14.7376 23.0547 14.5257 22.9795 14.3252 22.8838C14.1247 22.7835 13.9492 22.6582 13.7988 22.5078C13.6484 22.3574 13.5277 22.1774 13.4365 21.9678C13.3499 21.7581 13.3066 21.5143 13.3066 21.2363ZM16.8408 20.9355C16.8408 21.0586 16.8727 21.1702 16.9365 21.2705C17.0003 21.3708 17.0869 21.4551 17.1963 21.5234C17.3057 21.5918 17.4333 21.6442 17.5791 21.6807C17.7249 21.7171 17.8799 21.7354 18.0439 21.7354C18.2126 21.7354 18.3994 21.7171 18.6045 21.6807C18.8096 21.6396 19.0033 21.5736 19.1855 21.4824C19.3724 21.3913 19.5319 21.2728 19.6641 21.127C19.7962 20.9766 19.8714 20.7943 19.8896 20.5801V19.8828C19.8258 19.8783 19.7643 19.876 19.7051 19.876C19.6504 19.876 19.598 19.876 19.5479 19.876C19.0602 19.876 18.6455 19.901 18.3037 19.9512C17.9619 19.9967 17.6816 20.0651 17.4629 20.1562C17.2487 20.2474 17.0915 20.359 16.9912 20.4912C16.891 20.6234 16.8408 20.7715 16.8408 20.9355ZM25.6113 21.8516C25.8027 21.9062 25.9759 21.945 26.1309 21.9678C26.2904 21.9906 26.4635 22.002 26.6504 22.002C26.8783 22.002 27.0947 21.9883 27.2998 21.9609C27.5094 21.929 27.6917 21.8584 27.8467 21.749C28.0016 21.6351 28.1247 21.4688 28.2158 21.25C28.307 21.0312 28.3525 20.7327 28.3525 20.3545V14.9336L26.6299 13.1973H31.8184V20.6279C31.8184 21.1292 31.7523 21.5622 31.6201 21.9268C31.488 22.2868 31.2897 22.5853 31.0254 22.8223C30.7611 23.0547 30.4329 23.2256 30.041 23.335C29.6536 23.4489 29.2025 23.5059 28.6875 23.5059C28.3184 23.5059 27.9697 23.4831 27.6416 23.4375C27.318 23.3965 27.0218 23.3395 26.7529 23.2666C26.484 23.1982 26.2493 23.1162 26.0488 23.0205C25.8483 22.9294 25.6911 22.8359 25.5771 22.7402L25.6113 21.8516ZM36.5625 14.5576C36.3164 14.5576 36.084 14.512 35.8652 14.4209C35.651 14.3252 35.4642 14.1976 35.3047 14.0381C35.1452 13.8786 35.0176 13.6917 34.9219 13.4775C34.8307 13.2588 34.7852 13.0264 34.7852 12.7803C34.7852 12.5342 34.8307 12.304 34.9219 12.0898C35.0176 11.8711 35.1452 11.682 35.3047 11.5225C35.4642 11.3584 35.651 11.2308 35.8652 11.1396C36.084 11.0439 36.3164 10.9961 36.5625 10.9961C36.8086 10.9961 37.0387 11.0439 37.2529 11.1396C37.4717 11.2308 37.6608 11.3584 37.8203 11.5225C37.9844 11.682 38.112 11.8711 38.2031 12.0898C38.2988 12.304 38.3467 12.5342 38.3467 12.7803C38.3467 13.0264 38.2988 13.2588 38.2031 13.4775C38.112 13.6917 37.9844 13.8786 37.8203 14.0381C37.6608 14.1976 37.4717 14.3252 37.2529 14.4209C37.0387 14.512 36.8086 14.5576 36.5625 14.5576ZM35.1201 21.332V17.1689L33.3291 15.6377L38.3125 15.4326V21.332L40.165 23H33.2676L35.1201 21.332ZM42.5439 21.2637V14.9336L40.4248 13.1973C40.7575 13.1927 41.1312 13.1904 41.5459 13.1904C41.9606 13.1859 42.389 13.1813 42.8311 13.1768C43.2731 13.1722 43.7152 13.1699 44.1572 13.1699C44.5993 13.1654 45.0163 13.1631 45.4082 13.1631C45.8001 13.1585 46.1533 13.1562 46.4678 13.1562C46.7822 13.1517 47.0329 13.1494 47.2197 13.1494C47.6527 13.1494 48.1061 13.1585 48.5801 13.1768C49.054 13.195 49.5189 13.236 49.9746 13.2998C50.4349 13.359 50.8701 13.4502 51.2803 13.5732C51.695 13.6917 52.0573 13.8535 52.3672 14.0586C52.6816 14.2591 52.93 14.5098 53.1123 14.8105C53.2992 15.1068 53.3926 15.4645 53.3926 15.8838C53.3926 16.2438 53.3311 16.5492 53.208 16.7998C53.085 17.0505 52.9072 17.2601 52.6748 17.4287C52.4424 17.5973 52.1576 17.7295 51.8203 17.8252C51.4876 17.9163 51.1071 17.9847 50.6787 18.0303C51.18 18.0804 51.6357 18.1556 52.0459 18.2559C52.4561 18.3561 52.8047 18.4951 53.0918 18.6729C53.3835 18.846 53.609 19.0671 53.7686 19.3359C53.9281 19.6048 54.0078 19.9307 54.0078 20.3135C54.0078 20.7327 53.9144 21.0928 53.7275 21.3936C53.5452 21.6898 53.2969 21.9404 52.9824 22.1455C52.6725 22.346 52.3102 22.5078 51.8955 22.6309C51.4854 22.7493 51.0501 22.8405 50.5898 22.9043C50.1341 22.9635 49.6693 23.0023 49.1953 23.0205C48.7214 23.0387 48.2679 23.0479 47.835 23.0479C47.6299 23.0479 47.3542 23.0456 47.0078 23.041C46.666 23.041 46.2809 23.0387 45.8525 23.0342C45.4242 23.0342 44.9684 23.0319 44.4854 23.0273C44.0068 23.0273 43.526 23.0251 43.043 23.0205C42.5645 23.016 42.0973 23.0114 41.6416 23.0068C41.1904 23.0068 40.7826 23.0046 40.418 23L42.5439 21.2637ZM47.0078 17.4014C47.1491 17.4014 47.3132 17.3991 47.5 17.3945C47.6868 17.39 47.8805 17.3763 48.0811 17.3535C48.2816 17.3262 48.4775 17.2874 48.6689 17.2373C48.8649 17.1826 49.0381 17.1074 49.1885 17.0117C49.3434 16.9115 49.4665 16.7861 49.5576 16.6357C49.6533 16.4854 49.7012 16.3008 49.7012 16.082C49.7012 15.763 49.6169 15.5078 49.4482 15.3164C49.2842 15.125 49.07 14.9792 48.8057 14.8789C48.5459 14.7741 48.2565 14.7057 47.9375 14.6738C47.6185 14.6419 47.3086 14.626 47.0078 14.626H46.1465V17.4014H47.0078ZM47.4863 21.5713C47.6914 21.5713 47.9033 21.569 48.1221 21.5645C48.3408 21.5553 48.555 21.5348 48.7646 21.5029C48.9743 21.471 49.1725 21.4255 49.3594 21.3662C49.5508 21.3024 49.7171 21.2135 49.8584 21.0996C49.9997 20.9857 50.1113 20.8444 50.1934 20.6758C50.2754 20.5072 50.3164 20.3021 50.3164 20.0605C50.3164 19.8008 50.2594 19.582 50.1455 19.4043C50.0316 19.2266 49.8561 19.083 49.6191 18.9736C49.3867 18.8597 49.0928 18.7799 48.7373 18.7344C48.3818 18.6842 47.9648 18.6592 47.4863 18.6592H46.1465V21.5713H47.4863Z" fill="#883F88"/>
</g>
<rect x="1" y="1" width="148" height="36" stroke="white" stroke-width="2"/>
</g>
<defs>
<clipPath id="clip0_1_6">
<rect width="150" height="38" fill="white"/>
</clipPath>
</defs>
</svg>
